<svg width="320" height="320" viewBox="0 0 320 320" fill="none" xmlns="http://www.w3.org/2000/svg" role="img" aria-label="PaperHub logo mark">
  <g stroke-linecap="round" stroke-width="5.5" stroke="#9CA3AF">
    <line x1="160" y1="48" x2="160" y2="26"/>
    <line x1="205" y1="58" x2="219" y2="38"/>
    <line x1="238" y1="90" x2="260" y2="80"/>
    <line x1="250" y1="160" x2="274" y2="160"/>
    <line x1="238" y1="230" x2="260" y2="240"/>
    <line x1="205" y1="262" x2="219" y2="282"/>
    <line x1="160" y1="272" x2="160" y2="294"/>
    <line x1="115" y1="262" x2="101" y2="282"/>
    <line x1="82" y1="230" x2="60" y2="240"/>
    <line x1="70" y1="160" x2="46" y2="160"/>
    <line x1="82" y1="90" x2="60" y2="80"/>
    <line x1="115" y1="58" x2="101" y2="38"/>
  </g>

  <circle cx="160" cy="22" r="8" fill="#61D88A"/>
  <circle cx="223" cy="31" r="7" fill="#61D88A"/>
  <circle cx="266" cy="78" r="7" fill="#9CA3AF"/>
  <circle cx="280" cy="160" r="7" fill="#61D88A"/>
  <circle cx="266" cy="242" r="7" fill="#9CA3AF"/>
  <circle cx="223" cy="289" r="7" fill="#9CA3AF"/>
  <circle cx="160" cy="298" r="8" fill="#9CA3AF"/>
  <circle cx="97" cy="289" r="7" fill="#9CA3AF"/>
  <circle cx="54" cy="242" r="7" fill="#9CA3AF"/>
  <circle cx="40" cy="160" r="7" fill="#9CA3AF"/>
  <circle cx="54" cy="78" r="7" fill="#00B8C7"/>
  <circle cx="97" cy="31" r="7" fill="#00B8C7"/>

  <rect x="80" y="116" width="18" height="88" rx="5" fill="#13C8BD"/>
  <rect x="222" y="116" width="18" height="88" rx="5" fill="#5FD47E"/>

  <path d="M106 92C106 86.4772 110.477 82 116 82H184L212 110V228C212 233.523 207.523 238 202 238H116C110.477 238 106 233.523 106 228V92Z" fill="#4AD9A2"/>
  <path d="M184 82V104C184 107.314 186.686 110 190 110H212" stroke="#0B151B" stroke-opacity="0.62" stroke-width="4" stroke-linecap="round" stroke-linejoin="round"/>

  <g stroke="#0B151B" stroke-width="5" stroke-linecap="round" stroke-opacity="0.92">
    <line x1="128" y1="122" x2="171" y2="122"/>
    <line x1="128" y1="138" x2="185" y2="138"/>
    <line x1="128" y1="154" x2="183" y2="154"/>
    <line x1="128" y1="170" x2="190" y2="170"/>
    <line x1="128" y1="186" x2="187" y2="186"/>
    <line x1="128" y1="202" x2="176" y2="202"/>
    <line x1="176" y1="216" x2="188" y2="216"/>
  </g>
  <path d="M181 210L188 216L181 222" stroke="#0B151B" stroke-width="4" stroke-linecap="round" stroke-linejoin="round"/>
</svg>
